<?xml version="1.0" encoding="UTF-8" standalone="no"?>
<svg width="85px" height="90px" viewBox="0 0 85 90" version="1.1" xmlns="http://www.w3.org/2000/svg" xmlns:xlink="http://www.w3.org/1999/xlink">
    <!-- Generator: sketchtool 3.6 (26304) - http://www.bohemiancoding.com/sketch -->
    <title>logo</title>
    <desc>Created with sketchtool.</desc>
    <defs></defs>
    <g id="Authorize-app" stroke="none" stroke-width="1" fill="none" fill-rule="evenodd">
        <g id="Authorize-App" transform="translate(-275.000000, -201.000000)">
            <g id="logo" transform="translate(274.000000, 201.000000)">
                <path d="M79.8586364,44.2638701 L66.9337013,48.9672468 L56.3978571,40.1262078 L58.7857792,26.5817922 L71.7107143,21.8772468 L82.2465584,30.7182857 L79.8586364,44.2638701 Z M77.4648701,57.841013 L75.0757792,71.3865974 L62.152013,76.089974 L51.615,67.2489351 L54.0029221,53.7045195 L66.9278571,48.999974 L77.4648701,57.841013 Z M49.1966883,80.8062078 L36.2717532,85.5107532 L25.7347403,76.6685455 L28.1226623,63.122961 L41.0475974,58.4195844 L51.5846104,67.2606234 L49.1966883,80.8062078 Z M15.1731818,67.8076364 L4.63733766,58.9654286 L7.02525974,45.4198442 L19.9501948,40.7164675 L30.4872078,49.5575065 L28.0992857,63.1030909 L15.1731818,67.8076364 Z M9.41902597,31.8438701 L11.8081169,18.2982857 L24.7330519,13.5937403 L35.2700649,22.4347792 L32.880974,35.9803636 L19.956039,40.6837403 L9.41902597,31.8438701 Z M37.6883766,8.87867532 L50.6133117,4.17412987 L61.1491558,13.0151688 L58.7612338,26.5607532 L45.8362987,31.2641299 L35.2992857,22.4230909 L37.6883766,8.87867532 Z M45.8608442,31.2851688 L58.7553896,26.5923117 L56.3721429,40.1063377 L45.8608442,31.2851688 Z M56.392013,40.1589351 L66.9033117,48.9789351 L54.0087662,53.672961 L56.392013,40.1589351 Z M30.5175974,49.546987 L32.9055195,36.0014026 L45.8304545,31.2968571 L56.3662987,40.1378961 L53.9783766,53.6834805 L41.0534416,58.3868571 L30.5175974,49.546987 Z M41.0230519,58.3985455 L28.1285065,63.0914026 L30.5117532,49.5785455 L41.0230519,58.3985455 Z M19.9805844,40.7047792 L32.8751299,36.0119221 L30.4930519,49.5259481 L19.9805844,40.7047792 Z M45.8059091,31.2758182 L32.9113636,35.9698442 L35.2946104,22.4558182 L45.8059091,31.2758182 Z M41.077987,58.4078961 L53.9737013,53.715039 L51.5904545,67.2278961 L41.077987,58.4078961 Z M71.7224026,21.8503636 L71.7165584,21.8456883 L58.7916234,26.5490649 L61.1783766,13.0116623 L61.1807143,13.0034805 L50.625,4.14724675 L50.617987,4.14257143 L37.6708442,8.8552987 L37.6638312,8.85763636 L35.2747403,22.4032208 L24.7447403,13.5668571 L24.7388961,13.561013 L11.7917532,18.2749091 L11.7835714,18.2772468 L9.39097403,31.8462078 L9.38980519,31.8543896 L19.9256494,40.6954286 L7.0088961,45.3964675 L7.00071429,45.399974 L4.60811688,58.9689351 L4.60694805,58.9771169 L15.1614935,67.8345195 L15.1673377,67.8391948 L28.0934416,63.1346494 L25.7055195,76.6720519 L25.7043506,76.6802338 L36.2600649,85.5376364 L36.2659091,85.5423117 L49.2130519,80.8295844 L49.2212338,80.8260779 L51.6091558,67.2804935 L62.1403247,76.1168571 L62.1461688,76.1227013 L75.0933117,71.409974 L75.1014935,71.4064675 L77.4940909,57.8375065 L77.4952597,57.8293247 L66.9582468,48.9882857 L79.8761688,44.2872468 L79.8831818,44.2849091 L82.2757792,30.7147792 L82.2769481,30.7065974 L71.7224026,21.8503636 Z" id="Fill-1" fill="#1A1A1A"></path>
                <path d="M48.3619306,6.84434519 L80.0080345,33.3990205 C81.4915328,34.6438441 83.7032748,34.45036 84.9480984,32.9668616 C86.1929221,31.4833633 85.9994379,29.2716213 84.5159396,28.0267977 L52.8698357,1.47212234 C51.3863373,0.227298718 49.1745953,0.420782834 47.9297717,1.90428121 C46.6849481,3.38777959 46.8784322,5.59952157 48.3619306,6.84434519 L48.3619306,6.84434519 Z" id="Stroke-3" fill="#649791"></path>
                <path d="M73.9027937,68.0968014 L34.5903262,82.2256325 C32.7678705,82.8806199 31.8214504,84.8889843 32.4764377,86.71144 C33.1314251,88.5338958 35.1397895,89.4803159 36.9622452,88.8253285 L76.2747128,74.6964973 C78.0971685,74.04151 79.0435886,72.0331456 78.3886012,70.2106898 C77.7336139,68.3882341 75.7252494,67.441814 73.9027937,68.0968014 L73.9027937,68.0968014 Z" id="Stroke-4" fill="#F0C500"></path>
                <path d="M4.62214286,59.3753377 L11.7952597,18.2874156" id="Fill-5" fill="#EC696D"></path>
                <path d="M8.07639203,59.9783794 L15.2495089,18.8904573 C15.5825597,16.9827282 14.3060306,15.1662172 12.3983015,14.8331664 C10.4905724,14.5001156 8.67406134,15.7766447 8.34101057,17.6843738 L1.16789369,58.7722959 C0.834842915,60.680025 2.11137195,62.4965361 4.01910109,62.8295868 C5.92683023,63.1626376 7.74334126,61.8861086 8.07639203,59.9783794 L8.07639203,59.9783794 Z" id="Stroke-6" fill="#A2163B"></path>
                <path d="M25.7978714,27.7480605 L28.1893,14.1872813 C28.5256246,12.2801266 27.2522152,10.4614273 25.3450605,10.1251026 C23.4379059,9.788778 21.6192065,11.0621874 21.2828819,12.9693421 L18.8914533,26.5301213 C18.5551287,28.437276 19.828538,30.2559753 21.7356927,30.5923 C23.6428474,30.9286246 25.4615467,29.6552152 25.7978714,27.7480605 L25.7978714,27.7480605 Z" id="Stroke-8" fill="#008BB9"></path>
                <path d="M18.6241701,68.4319177 L21.0155987,54.8711385 C21.3519233,52.9639838 20.0785139,51.1452844 18.1713592,50.8089598 C16.2642046,50.4726351 14.4455052,51.7460445 14.1091806,53.6531992 L11.717752,67.2139784 C11.3814274,69.1211331 12.6548367,70.9398325 14.5619914,71.2761571 C16.4691461,71.6124817 18.2878454,70.3390724 18.6241701,68.4319177 L18.6241701,68.4319177 Z" id="Stroke-9" fill="#560604"></path>
                <path d="M35.4219176,11.5541504 L45.9706189,20.4057088 C47.4541172,21.6505325 49.6658592,21.4570483 50.9106829,19.97355 C52.1555065,18.4900516 51.9620224,16.2783096 50.478524,15.033486 L39.9298227,6.18192754 C38.4463243,4.93710391 36.2345823,5.13058803 34.9897587,6.6140864 C33.7449351,8.09758478 33.9384192,10.3093268 35.4219176,11.5541504 L35.4219176,11.5541504 Z" id="Stroke-10" fill="#4F9F4F"></path>
                <path d="M67.0683721,38.1085919 L77.6170734,46.9601504 C79.1005718,48.204974 81.3123138,48.0114899 82.5571374,46.5279915 C83.801961,45.0444931 83.6084769,42.8327512 82.1249785,41.5879275 L71.5762772,32.7363691 C70.0927789,31.4915455 67.8810369,31.6850296 66.6362133,33.168528 C65.3913896,34.6520263 65.5848737,36.8637683 67.0683721,38.1085919 L67.0683721,38.1085919 Z" id="Stroke-11" fill="#0E6D65"></path>
                <path d="M65.7390913,65.8401662 L78.6792211,61.1309454 C80.499041,60.4686697 81.4374159,58.4565338 80.7751402,56.6367139 C80.1128645,54.8168941 78.1007286,53.8785192 76.2809087,54.5407948 L63.3407789,59.2500156 C61.520959,59.9122913 60.5825841,61.9244273 61.2448598,63.7442471 C61.9071355,65.5640669 63.9192714,66.5024419 65.7390913,65.8401662 L65.7390913,65.8401662 Z" id="Stroke-12" fill="#008BB9"></path>
                <path d="M28.2483332,52.2380075 L38.7970345,61.089566 C40.2805328,62.3343896 42.4922748,62.1409055 43.7370984,60.6574071 C44.9819221,59.1739087 44.7884379,56.9621667 43.3049396,55.7173431 L32.7562383,46.8657847 C31.2727399,45.6209611 29.0609979,45.8144452 27.8161743,47.2979435 C26.5713507,48.7814419 26.7648348,50.9931839 28.2483332,52.2380075 L28.2483332,52.2380075 Z" id="Stroke-13" fill="#91BEAF"></path>
                <path d="M57.4443259,54.302619 L59.8357545,40.7418398 C60.1720791,38.8346851 58.8986698,37.0159857 56.9915151,36.6796611 C55.0843604,36.3433364 53.2656611,37.6167458 52.9293364,39.5239005 L50.5379078,53.0846797 C50.2015832,54.9918344 51.4749926,56.8105338 53.3821472,57.1468584 C55.2893019,57.483183 57.1080013,56.2097737 57.4443259,54.302619 L57.4443259,54.302619 Z" id="Stroke-14" fill="#4A625A"></path>
                <path d="M34.0926367,39.2857246 L47.0327666,34.5765039 C48.8525864,33.9142282 49.7909614,31.9020922 49.1286857,30.0822724 C48.46641,28.2624525 46.454274,27.3240776 44.6344542,27.9863533 L31.6943243,32.6955741 C29.8745045,33.3578498 28.9361296,35.3699857 29.5984052,37.1898056 C30.2606809,39.0096254 32.2728169,39.9480003 34.0926367,39.2857246 L34.0926367,39.2857246 Z" id="Stroke-15" fill="#B9BC63"></path>
                <path d="M26.9189354,79.9695818 L39.8590653,75.260361 C41.6788851,74.5980853 42.6172601,72.5859493 41.9549844,70.7661295 C41.2927087,68.9463097 39.2805727,68.0079347 37.4607529,68.6702104 L24.520623,73.3794312 C22.7008032,74.0417069 21.7624283,76.0538429 22.4247039,77.8736627 C23.0869796,79.6934825 25.0991156,80.6318575 26.9189354,79.9695818 L26.9189354,79.9695818 Z" id="Stroke-16" fill="#E48B21"></path>
            </g>
        </g>
    </g>
</svg>